<?xml version="1.0" encoding="UTF-8"?>
<svg version="1.1" xmlns="http://www.w3.org/2000/svg" width="1254" height="1254">
<path d="M0 0 C413.82 0 827.64 0 1254 0 C1254 413.82 1254 827.64 1254 1254 C840.18 1254 426.36 1254 0 1254 C0 840.18 0 426.36 0 0 Z " fill="#EF6629" transform="translate(0,0)"/>
<path d="M0 0 C19.68106806 16.57685295 33.66763719 36.5094948 46.56347656 58.5625 C48.8277202 62.40447969 51.16383689 66.20148016 53.5 70 C61.53910041 83.11627438 69.4404922 96.31371992 77.22216797 109.58422852 C80.34753461 114.90748545 83.50933089 120.20811533 86.6875 125.5 C87.18467529 126.32806152 87.68185059 127.15612305 88.1940918 128.00927734 C90.98078442 132.64746595 93.77357739 137.28192296 96.5703125 141.9140625 C108.36390268 161.46863595 120.03647474 181.07390442 130.625 201.3125 C131.1929126 202.39063965 131.7608252 203.4687793 132.34594727 204.57958984 C137.69069389 214.93298584 141.81122666 225.64934818 145.125 236.8125 C145.50338013 238.08480469 145.50338013 238.08480469 145.8894043 239.3828125 C154.44260623 268.89453932 155.74177646 304.19946322 148 334 C147.78569336 334.86399414 147.57138672 335.72798828 147.35058594 336.61816406 C138.65059142 371.25351342 121.92504844 400.45435832 97.9375 426.75 C97.23197998 427.52839233 97.23197998 427.52839233 96.51220703 428.32250977 C66.01333457 461.2765781 17.75532396 483.59962199 -27 486 C-47.62842287 486.72465485 -67.79058503 486.67050095 -88 482 C-88.83047852 481.81808105 -89.66095703 481.63616211 -90.51660156 481.44873047 C-120.62658038 474.76094438 -147.76424414 460.11832216 -171 440 C-171.81597656 439.29488281 -172.63195312 438.58976562 -173.47265625 437.86328125 C-182.31341561 430.05931459 -190.77772657 421.77434047 -198.42578125 412.79296875 C-200.58458823 410.33417866 -202.91666105 408.07292218 -205.25 405.78125 C-207.70634849 403.28103815 -209.96309368 400.62319484 -212.25 397.96875 C-214.45010172 395.49363556 -216.79414514 393.19254273 -219.15698242 390.87426758 C-220.93117629 389.06999067 -222.58932662 387.21170309 -224.23828125 385.29296875 C-227.94716094 381.02751213 -231.7973427 376.9123179 -235.6875 372.8125 C-242.02970111 366.10119158 -248.32383634 359.3494323 -254.57324219 352.55175781 C-257.00472091 349.90725426 -259.43938091 347.26569013 -261.875 344.625 C-262.36299072 344.09575928 -262.85098145 343.56651855 -263.35375977 343.02124023 C-267.28020841 338.76795991 -271.23245276 334.5391749 -275.1875 330.3125 C-278.97634182 326.26260489 -282.74417912 322.20013016 -286.4375 318.0625 C-290.55705065 313.47570353 -294.69991736 308.91127815 -298.875 304.375 C-299.53040771 303.65062744 -300.18581543 302.92625488 -300.86108398 302.17993164 C-301.48184814 301.50953857 -302.1026123 300.83914551 -302.7421875 300.1484375 C-303.2976123 299.54177246 -303.85303711 298.93510742 -304.42529297 298.31005859 C-306.04297374 296.68022444 -306.04297374 296.68022444 -309 297 C-310.74494177 298.40508167 -310.74494177 298.40508167 -312.44140625 300.33203125 C-313.10277588 301.04302979 -313.76414551 301.75402832 -314.44555664 302.48657227 C-315.4934436 303.63790649 -315.4934436 303.63790649 -316.5625 304.8125 C-317.63842407 305.97640259 -317.63842407 305.97640259 -318.73608398 307.16381836 C-320.83212405 309.43529479 -322.91720668 311.71638068 -325 314 C-326.01003975 315.09930476 -327.0204043 316.19831129 -328.03125 317.296875 C-331.49854128 321.08521177 -334.91938749 324.90654462 -338.28515625 328.78515625 C-342.04149422 333.08538013 -345.94350401 337.23528804 -349.875 341.375 C-354.91973439 346.71011198 -359.91818171 352.07362587 -364.8046875 357.5546875 C-367.97491859 361.08594135 -371.20041854 364.56522685 -374.42333984 368.04833984 C-377.75235222 371.64661831 -381.06786165 375.25660157 -384.375 378.875 C-388.53455507 383.42212416 -392.72917199 387.93550101 -396.9375 392.4375 C-412.20667883 408.71173677 -412.20667883 408.71173677 -427.05078125 425.37109375 C-431.39391651 430.37202426 -435.9180325 434.76059256 -441 439 C-442.30904297 440.14082031 -442.30904297 440.14082031 -443.64453125 441.3046875 C-451.33089276 447.91063675 -459.41387049 453.62182534 -468 459 C-468.56944336 459.35835937 -469.13888672 459.71671875 -469.72558594 460.0859375 C-479.63988345 466.24403006 -490.14739661 470.77814339 -501 475 C-502.30070435 475.51022705 -502.30070435 475.51022705 -503.62768555 476.03076172 C-510.14013198 478.50202069 -516.62120715 480.22015049 -523.4375 481.625 C-524.38431641 481.82867188 -525.33113281 482.03234375 -526.30664062 482.2421875 C-529.19963459 482.85496015 -532.0982812 483.43012876 -535 484 C-535.90065186 484.19343994 -536.80130371 484.38687988 -537.72924805 484.58618164 C-546.29253916 486.26401824 -554.73701681 486.27118341 -563.42651367 486.20581055 C-565.92962913 486.1875574 -568.43237167 486.18530168 -570.93554688 486.18554688 C-623.79228336 486.07926767 -669.88538851 466.15815805 -708 430 C-708.76280273 429.28021973 -708.76280273 429.28021973 -709.54101562 428.54589844 C-717.19964365 421.27166153 -723.8783119 413.6065603 -730 405 C-730.41491699 404.41879395 -730.82983398 403.83758789 -731.25732422 403.23876953 C-745.58185595 382.96633535 -755.06048425 360.91700495 -761.4375 336.9375 C-761.67235107 336.0594873 -761.90720215 335.18147461 -762.14916992 334.27685547 C-765.7326219 320.01469004 -766.3765799 305.9290564 -766.3125 291.3125 C-766.31034485 290.42815277 -766.3081897 289.54380554 -766.30596924 288.63265991 C-766.25609125 275.88652628 -766.01446972 263.44604348 -763 251 C-762.71793701 249.78932861 -762.71793701 249.78932861 -762.43017578 248.55419922 C-755.40654028 219.28066989 -740.86745181 194.17784122 -725.33729553 168.7645874 C-721.33263559 162.21045351 -717.38843264 155.62382458 -713.5 149 C-706.88070146 137.74022917 -700.09749082 126.58157798 -693.30375671 115.426651 C-689.65819535 109.44077291 -686.02221873 103.4490954 -682.38653564 97.45721436 C-680.61134691 94.53219319 -678.83492296 91.60792241 -677.05859375 88.68359375 C-674.48590609 84.44804914 -671.91563936 80.21105456 -669.34765625 75.97265625 C-665.91223386 70.3066266 -662.45961716 64.65128177 -659 59 C-658.37319336 57.97293945 -657.74638672 56.94587891 -657.10058594 55.88769531 C-647.47212116 40.14209683 -637.74312024 25.43193755 -625 12 C-624.53255371 11.50000488 -624.06510742 11.00000977 -623.58349609 10.48486328 C-600.31376043 -14.27546043 -566.42954282 -32.87007395 -531.8984375 -34.20874023 C-530.39077368 -34.24818884 -528.88293032 -34.28116097 -527.375 -34.30859375 C-526.15072548 -34.3314872 -526.15072548 -34.3314872 -524.90171814 -34.35484314 C-506.79294145 -34.63064183 -490.19079405 -34.40201203 -473 -28 C-472.28714844 -27.74911621 -471.57429688 -27.49823242 -470.83984375 -27.23974609 C-466.46207462 -25.691536 -462.22887647 -23.92486791 -458 -22 C-456.85789062 -21.48953125 -455.71578125 -20.9790625 -454.5390625 -20.453125 C-447.97154437 -17.35384678 -441.88845648 -13.8058216 -435.875 -9.75 C-435.26664307 -9.34499268 -434.65828613 -8.93998535 -434.03149414 -8.52270508 C-422.4410712 -0.45907135 -412.5948984 10.24258077 -402.66186523 20.20776367 C-400.67610324 22.19892777 -398.6849926 24.18463221 -396.69335938 26.16992188 C-391.10810961 31.75255727 -385.56266249 37.30927626 -380.44848633 43.33325195 C-377.95143561 46.20656482 -375.22318868 48.84306896 -372.5 51.5 C-368.40188018 55.49840888 -364.54375833 59.61464738 -360.79931641 63.94677734 C-357.76962312 67.40399858 -354.60022545 70.72735488 -351.4375 74.0625 C-350.02056798 75.56224934 -348.60390626 77.0622541 -347.1875 78.5625 C-346.48367188 79.30757813 -345.77984375 80.05265625 -345.0546875 80.8203125 C-342.00384909 84.05675324 -338.96965007 87.30855939 -335.9375 90.5625 C-334.79952687 91.78259658 -333.66150574 93.00264839 -332.5234375 94.22265625 C-331.95334961 94.83383301 -331.38326172 95.44500977 -330.79589844 96.07470703 C-329.90692871 97.02772705 -329.90692871 97.02772705 -329 98 C-328.35579102 98.69077637 -327.71158203 99.38155273 -327.04785156 100.09326172 C-325.0540288 102.23005428 -323.05844478 104.36518964 -321.0625 106.5 C-320.15842407 107.46981812 -320.15842407 107.46981812 -319.23608398 108.45922852 C-315.68021915 112.25927291 -312.04968057 115.94492171 -308.28295898 119.53710938 C-307 121 -307 121 -307 123 C-303.15907448 120.91837953 -300.58642359 118.68416086 -297.75 115.375 C-294.7260419 111.91904788 -291.65008752 108.59419865 -288.375 105.375 C-284.98810975 102.03506836 -281.84079058 98.5741322 -278.74609375 94.96484375 C-276.2764064 92.18575486 -273.62096678 89.61139504 -270.97265625 87.00390625 C-268.42662171 84.41753849 -266.07978443 81.6846472 -263.71484375 78.93359375 C-262.03995701 77.04505403 -260.30052413 75.26844352 -258.5 73.5 C-256.10722509 71.14966899 -253.86808888 68.735776 -251.6875 66.1875 C-248.92381971 62.97666245 -246.01380404 59.97732835 -243 57 C-240.08946199 54.12442341 -237.27575978 51.24125906 -234.625 48.125 C-231.14207302 44.04782955 -227.36295927 40.30347438 -223.52587891 36.56298828 C-220.82971329 33.91360299 -218.27882315 31.20087716 -215.81640625 28.33203125 C-211.09859942 22.88462666 -206.02761118 17.78370156 -200.9375 12.6875 C-200.42866272 12.17798798 -199.91982544 11.66847595 -199.39556885 11.14352417 C-144.13928127 -43.99674711 -61.27562961 -50.99594681 0 0 Z " fill="#FBF4EF" transform="translate(934,404)"/>
<path d="M0 0 C0.75925781 0.41121094 1.51851562 0.82242187 2.30078125 1.24609375 C11.69898715 6.87166282 19.25774466 15.80654665 26.29296875 24.07421875 C28.990997 27.11798975 31.91797733 29.9258425 34.8125 32.78125 C37.40196881 35.40771122 39.78836964 38.16976458 42.1875 40.96875 C44.92777083 44.03974317 47.87946902 46.88786876 50.80859375 49.77734375 C53.42101068 52.4270144 55.83302621 55.21172803 58.25390625 58.03515625 C60.65209001 60.73378361 63.21611524 63.24314575 65.8125 65.75 C67.70655723 67.69817315 69.48950195 69.68714327 71.26953125 71.73828125 C74.96677968 75.99449617 78.80727496 80.09839467 82.6875 84.1875 C88.25944584 90.08094172 93.80009491 95.99995189 99.28198242 101.97729492 C101.96812831 104.90785906 101.96812831 104.90785906 104.88671875 107.6015625 C106 109 106 109 105.9765625 110.890625 C104.62489399 113.81022898 102.70547177 115.53922014 100.375 117.75 C97.28429571 120.74439339 94.28646416 123.72023836 91.5 127 C88.08689328 130.99269088 84.38691847 134.64957939 80.625 138.3125 C77.91424851 141.08779319 75.38372192 143.97290316 72.84326172 146.90283203 C69.83367756 150.32698142 66.69813071 153.62908884 63.5625 156.9375 C62.15877214 158.42309958 60.75512888 159.9087791 59.3515625 161.39453125 C58.63645508 162.15072754 57.92134766 162.90692383 57.18457031 163.68603516 C55.00126657 165.9986584 52.82386548 168.31668706 50.6484375 170.63671875 C49.94259521 171.38896729 49.23675293 172.14121582 48.50952148 172.91625977 C47.16974778 174.34443611 45.8306698 175.77326557 44.49243164 177.20288086 C40.91843078 181.00815431 37.29100805 184.74304466 33.56884766 188.40380859 C31.95299395 190.04782533 30.4393295 191.75168898 28.9375 193.5 C25.49479906 197.49075423 21.91458555 201.34129574 18.3125 205.1875 C17.7055127 205.83565674 17.09852539 206.48381348 16.47314453 207.15161133 C15.86325684 207.80282959 15.25336914 208.45404785 14.625 209.125 C9.38473026 214.72054226 4.18980264 220.35768051 -1 226 C-1.47566406 226.51691406 -1.95132813 227.03382813 -2.44140625 227.56640625 C-3.39134422 228.5991726 -4.34081314 229.63237059 -5.28979492 230.66601562 C-6.21562124 231.67383216 -7.14285077 232.68036158 -8.0715332 233.68554688 C-10.17572521 235.97068346 -12.23269626 238.27711638 -14.23046875 240.65625 C-26.29713969 254.89887799 -44.55410972 264.95780855 -63 268 C-87.3331598 269.9975468 -107.8385393 264.68040974 -127 249 C-141.72225939 236.4066213 -152.2624007 217.84815626 -154.25878906 198.49072266 C-155.7194511 174.65620904 -148.58283624 155.6868462 -136.12207031 135.80175781 C-134.37467396 132.99588638 -132.69101126 130.15261543 -131 127.3125 C-124.85105028 117.04756404 -118.62037432 106.83169023 -112.40629578 96.60610962 C-109.44639338 91.73532795 -106.48855619 86.86329561 -103.53140259 81.99084473 C-100.35543542 76.75793477 -97.17820216 71.52579474 -94.00048828 66.29394531 C-92.70172142 64.1554339 -91.4032042 62.01677085 -90.10498047 59.87792969 C-87.18998325 55.0759332 -84.27056308 50.27679406 -81.33984375 45.484375 C-79.07637141 41.78087164 -76.84395924 38.06076867 -74.62890625 34.328125 C-64.87994744 18.02801428 -53.46826527 0.9718961 -34.14379883 -4.52832031 C-22.73136015 -7.03929076 -10.06903699 -5.85409128 0 0 Z " fill="#EC5D29" transform="translate(440,502)"/>
<path d="M0 0 C9.39986367 6.93507857 15.5243196 15.85970941 21.3984375 25.76953125 C21.90310547 26.61725098 22.40777344 27.4649707 22.92773438 28.33837891 C25.74687583 33.08080503 28.54998096 37.83243318 31.34375 42.58984375 C34.23773249 47.5104936 37.20229577 52.37903396 40.2109375 57.23046875 C43.1136044 61.91406582 45.97221448 66.62456313 48.8359375 71.33203125 C49.72853271 72.79914551 49.72853271 72.79914551 50.63916016 74.29589844 C56.04770045 83.18855483 61.45316469 92.08309905 66.84912109 100.98339844 C70.5453851 107.07892923 74.25182735 113.16791306 77.9765625 119.24609375 C109.84003488 171.27835698 109.84003488 171.27835698 102.3046875 203.18359375 C96.25617928 224.58177771 82.88440239 244.35860826 63.1953125 255.39453125 C43.83491369 264.91249268 21.98866274 268.79946017 0.95703125 262.1640625 C-9.53163103 258.05379638 -19.04312378 253.17918625 -27.6015625 245.76953125 C-28.4678125 245.13015625 -29.3340625 244.49078125 -30.2265625 243.83203125 C-33.01985212 241.40627973 -35.31599006 238.72009333 -37.71484375 235.91015625 C-40.1537003 233.14308919 -42.76160346 230.58052618 -45.4140625 228.01953125 C-47.31430134 226.06499987 -49.10408496 224.06902265 -50.890625 222.01171875 C-54.48489434 217.87361751 -58.21012493 213.87563625 -61.9765625 209.89453125 C-66.06236856 205.5575976 -70.13614147 201.21743697 -74.1015625 196.76953125 C-78.60296978 191.72558147 -83.23319017 186.80663215 -87.86523438 181.88305664 C-91.9717529 177.51601151 -96.04810802 173.12332692 -100.1015625 168.70703125 C-103.62090191 164.87445221 -107.19861113 161.12675495 -110.91625977 157.48583984 C-112.63167939 155.73886027 -114.23134184 153.92996527 -115.828125 152.07421875 C-119.50331177 147.85033804 -123.31199665 143.76933141 -127.1640625 139.70703125 C-128.56922897 138.21895634 -129.97417234 136.73067074 -131.37890625 135.2421875 C-132.43247314 134.12674561 -132.43247314 134.12674561 -133.50732422 132.98876953 C-136.75457661 129.54769652 -139.9932717 126.09872195 -143.2265625 122.64453125 C-143.78158447 122.05406006 -144.33660645 121.46358887 -144.90844727 120.85522461 C-148.58776189 116.92104633 -152.12740661 112.88583709 -155.6015625 108.76953125 C-154.12669817 103.51347113 -150.74206669 100.6069197 -146.9140625 96.95703125 C-145.636168 95.71153362 -144.36010564 94.46415326 -143.0859375 93.21484375 C-142.47814453 92.61961914 -141.87035156 92.02439453 -141.24414062 91.41113281 C-138.72098642 88.8894787 -136.40956289 86.21205803 -134.10546875 83.4921875 C-131.97438764 81.05113096 -129.6583416 78.81639001 -127.34765625 76.546875 C-125.53678607 74.70359551 -123.84834896 72.79130326 -122.1640625 70.83203125 C-119.74538471 68.02376778 -117.24256567 65.36982532 -114.6015625 62.76953125 C-111.98115641 60.1894391 -109.49832838 57.55849518 -107.1015625 54.76953125 C-104.70479662 51.98056732 -102.22196859 49.3496234 -99.6015625 46.76953125 C-97.00174067 44.20962991 -94.53887852 41.60173585 -92.1640625 38.83203125 C-89.59490979 35.84151409 -86.90838994 33.03836441 -84.1015625 30.26953125 C-80.69829313 26.912252 -77.5333678 23.44163954 -74.42578125 19.8125 C-71.66093115 16.7161047 -68.69119338 13.83707671 -65.71484375 10.9453125 C-63.54530304 8.79798058 -63.54530304 8.79798058 -61.70703125 6.28515625 C-45.42385884 -13.17006274 -20.1400029 -12.87265558 0 0 Z " fill="#EF6E29" transform="translate(864.6015625,505.23046875)"/>
<path d="M0 0 C16.52873805 0.54192584 27.01188093 12.72252691 37.625 24 C39.72142073 26.24533463 41.81327199 28.49482692 43.90332031 30.74609375 C47.25237091 34.34628414 50.62696397 37.92229852 54 41.5 C55.31655413 42.89829828 56.63295966 44.29673648 57.94921875 45.6953125 C58.60712402 46.39430664 59.2650293 47.09330078 59.94287109 47.81347656 C62.11505824 50.12229547 64.28613167 52.43215793 66.45703125 54.7421875 C67.18599609 55.51755859 67.91496094 56.29292969 68.66601562 57.09179688 C70.06483809 58.57971631 71.46329381 60.06798063 72.86132812 61.55664062 C73.49103516 62.22630859 74.12074219 62.89597656 74.76953125 63.5859375 C75.32229736 64.1742334 75.87506348 64.7625293 76.44458008 65.36865234 C77.93994032 66.93700852 79.46097566 68.47457998 81 70 C80.505 71.485 80.505 71.485 80 73 C79.5875 72.5153125 79.175 72.030625 78.75 71.53125 C75.61414682 67.89142041 72.42462183 64.37111211 69 61 C65.74970017 57.79970478 62.75275755 54.45775424 59.78125 51 C57.9257479 48.91662922 55.98776899 46.95718793 54 45 C51.40017817 42.44009866 48.93731602 39.8322046 46.5625 37.0625 C43.29283083 33.2565753 39.77677129 29.75722887 36.203125 26.23828125 C34.12088896 24.12281804 32.17633005 21.9446563 30.25 19.6875 C24.97780377 13.58475231 17.73570302 7.57856767 10 5 C10 4.34 10 3.68 10 3 C8.906875 2.87625 7.81375 2.7525 6.6875 2.625 C3 2 3 2 0 0 Z " fill="#E2562B" transform="translate(425,498)"/>
<path d="M0 0 C1.32 1.65 2.64 3.3 4 5 C3.41968018 5.0920874 2.83936035 5.1841748 2.24145508 5.27905273 C-0.5486421 6.17646663 -1.81075598 7.45296947 -3.86328125 9.53515625 C-4.58580078 10.26283203 -5.30832031 10.99050781 -6.05273438 11.74023438 C-6.79845703 12.50658203 -7.54417969 13.27292969 -8.3125 14.0625 C-9.04662109 14.80177734 -9.78074219 15.54105469 -10.53710938 16.30273438 C-14.60841028 20.43183547 -18.49101411 24.67131223 -22.27856445 29.06030273 C-25.19327169 32.34456724 -28.31218841 35.41768212 -31.4375 38.5 C-32.07365234 39.13164063 -32.70980469 39.76328125 -33.36523438 40.4140625 C-34.90782806 41.94505774 -36.45357314 43.47287667 -38 45 C-38.66 44.34 -39.32 43.68 -40 43 C-39.35933594 42.3709375 -38.71867187 41.741875 -38.05859375 41.09375 C-32.10912638 35.20678913 -32.10912638 35.20678913 -26.5 29 C-23.80388859 25.84605835 -20.95183025 22.91626603 -18 20 C-13.78420767 15.82892062 -9.8324468 11.52247372 -6 7 C-4.85441781 5.66645088 -3.70859743 4.33310633 -2.5625 3 C-1.716875 2.01 -0.87125 1.02 0 0 Z " fill="#F7D2BE" transform="translate(546,612)"/>
<path d="M0 0 C3.64661777 7.21096661 4.3211511 13.12050153 4.25 21.125 C4.24613281 22.17365234 4.24226563 23.22230469 4.23828125 24.30273438 C4.12992785 34.27726638 3.22560391 44.10762561 2 54 C1.01 54 0.02 54 -1 54 C-0.75552124 52.10423218 -0.75552124 52.10423218 -0.50610352 50.17016602 C0.08121699 44.8609725 0.12702479 39.61396645 0.09765625 34.27734375 C0.0962413 33.29125626 0.09482635 32.30516876 0.09336853 31.28919983 C0.0878177 28.17193432 0.0752746 25.05474342 0.0625 21.9375 C0.05747864 19.81054792 0.05291685 17.6835947 0.04882812 15.55664062 C0.03786442 10.37106546 0.02063425 5.18554533 0 0 Z " fill="#F08D4C" transform="translate(1085,671)"/>
<path d="M0 0 C0.99 0.33 1.98 0.66 3 1 C-0.90476559 4.97892115 -4.81928239 8.94788804 -8.74316406 12.90795898 C-10.07662184 14.25650333 -11.40737469 15.60772793 -12.73535156 16.96166992 C-14.6446382 18.90734431 -16.56344467 20.84317266 -18.484375 22.77734375 C-19.07619568 23.38464828 -19.66801636 23.99195282 -20.277771 24.61766052 C-20.83804993 25.17816605 -21.39832886 25.73867157 -21.97558594 26.31616211 C-22.70838776 27.05895668 -22.70838776 27.05895668 -23.45599365 27.8167572 C-25.26220288 29.20093808 -26.77999609 29.59269501 -29 30 C-23.47349666 23.25919575 -17.30550441 17.1928871 -11.125 11.0625 C-10.04403726 9.98656273 -8.96330617 8.91039269 -7.8828125 7.83398438 C-5.25787359 5.21996708 -2.62981372 2.60911404 0 0 Z " fill="#FCEDE5" transform="translate(745,405)"/>
<path d="M0 0 C0 3.91994879 -1.57625598 6.08016802 -4 9 C-5.70506174 10.60001054 -7.46905317 12.08835886 -9.27734375 13.5703125 C-11.67856054 15.56315909 -13.82182466 17.76737027 -16 20 C-17.26950192 21.27216335 -18.54039265 22.54294196 -19.8125 23.8125 C-20.41707031 24.41707031 -21.02164063 25.02164063 -21.64453125 25.64453125 C-22.09183594 26.09183594 -22.53914062 26.53914062 -23 27 C-23 24 -23 24 -21.71484375 22.45703125 C-21.12832031 21.91433594 -20.54179688 21.37164063 -19.9375 20.8125 C-17.35638872 18.34518521 -14.94128992 15.84270785 -12.625 13.125 C-8.65380536 8.51153926 -4.34627493 4.25757544 0 0 Z " fill="#E25A26" transform="translate(770,547)"/>
<path d="M0 0 C0.66 0.33 1.32 0.66 2 1 C2.09023438 1.88945313 2.18046875 2.77890625 2.2734375 3.6953125 C3.21593456 7.98215396 5.50242653 10.01885611 8.625 12.875 C9.72454521 13.92380447 10.82220803 14.97458598 11.91796875 16.02734375 C12.4495459 16.53378418 12.98112305 17.04022461 13.52880859 17.56201172 C16.02737582 20.00418911 18.26789438 22.65136987 20.53125 25.30859375 C22.57559523 27.66285302 24.76233199 29.83014011 27 32 C26.67 32.66 26.34 33.32 26 34 C13.96875 22.14655172 13.96875 22.14655172 8.6640625 15.875 C6.14213594 13.03339261 3.37634723 10.452031 0.6015625 7.859375 C-1.13090123 5.84802686 -1.79261186 4.64146999 -2 2 C-1.34 1.34 -0.68 0.68 0 0 Z " fill="#E65D2A" transform="translate(711,610)"/>
<path d="M0 0 C1.32 1.65 2.64 3.3 4 5 C3.11683105 5.14973267 3.11683105 5.14973267 2.21582031 5.30249023 C-0.4156243 6.13083282 -1.53856606 7.19241512 -3.453125 9.16015625 C-4.38125 10.1027832 -4.38125 10.1027832 -5.328125 11.06445312 C-6.27945313 12.05348633 -6.27945313 12.05348633 -7.25 13.0625 C-7.8996875 13.72572266 -8.549375 14.38894531 -9.21875 15.07226562 C-10.8194676 16.70829317 -12.41276193 18.35090912 -14 20 C-14.33 19.01 -14.66 18.02 -15 17 C-13.87851562 15.78763672 -13.87851562 15.78763672 -12.734375 14.55078125 C-11.73949763 13.47143316 -10.74471077 12.39200163 -9.75 11.3125 C-9.25886719 10.78205078 -8.76773438 10.25160156 -8.26171875 9.70507812 C-5.37269261 6.56566972 -2.62459433 3.36822939 0 0 Z " fill="#F8C8B1" transform="translate(546,612)"/>
<path d="M0 0 C0.765625 1.703125 0.765625 1.703125 1 4 C-0.765625 6.359375 -0.765625 6.359375 -3.25 8.75 C-4.05953125 9.54921875 -4.8690625 10.3484375 -5.703125 11.171875 C-8 13 -8 13 -11 13 C-11.25523437 13.59296875 -11.51046875 14.1859375 -11.7734375 14.796875 C-13.11816498 17.21224538 -14.49214367 18.51211706 -16.625 20.25 C-17.25664063 20.77078125 -17.88828125 21.2915625 -18.5390625 21.828125 C-19.02117188 22.21484375 -19.50328125 22.6015625 -20 23 C-18.60867688 19.89157845 -16.97011082 17.67888833 -14.62890625 15.21484375 C-13.64374023 14.17166992 -13.64374023 14.17166992 -12.63867188 13.10742188 C-11.95353516 12.39134766 -11.26839844 11.67527344 -10.5625 10.9375 C-9.88123047 10.21755859 -9.19996094 9.49761719 -8.49804688 8.75585938 C-5.69844043 5.80269959 -2.88797391 2.86705853 0 0 Z " fill="#E25B26" transform="translate(738,581)"/>
<path d="M0 0 C11.88 0.33 23.76 0.66 36 1 C36 1.33 36 1.66 36 2 C35.26362305 2.02505615 34.52724609 2.0501123 33.76855469 2.07592773 C30.42886622 2.19204273 27.08944903 2.31469918 23.75 2.4375 C22.59113281 2.47681641 21.43226563 2.51613281 20.23828125 2.55664062 C18.56572266 2.61948242 18.56572266 2.61948242 16.859375 2.68359375 C15.31975098 2.73858032 15.31975098 2.73858032 13.74902344 2.79467773 C11.34990207 2.97386611 9.31625072 3.40953018 7 4 C5.68 4 4.36 4 3 4 C3 3.34 3 2.68 3 2 C2.01 1.34 1.02 0.68 0 0 Z " fill="#E98457" transform="translate(341,889)"/>
<path d="M0 0 C0.93423645 3.01031744 1.04449911 3.86650268 0 7 C-0.66 7 -1.32 7 -2 7 C-2.25523437 7.69480469 -2.51046875 8.38960937 -2.7734375 9.10546875 C-4.14965828 12.35317449 -5.82539313 15.27982916 -7.625 18.3125 C-8.25664062 19.38113281 -8.88828125 20.44976563 -9.5390625 21.55078125 C-10.26222656 22.76314453 -10.26222656 22.76314453 -11 24 C-12.01241994 21.38085646 -12.14368668 20.33303213 -11.01196289 17.70996094 C-10.5039917 16.89301758 -9.99602051 16.07607422 -9.47265625 15.234375 C-8.92802734 14.34492187 -8.38339844 13.45546875 -7.82226562 12.5390625 C-7.24154297 11.61867188 -6.66082031 10.69828125 -6.0625 9.75 C-5.1972168 8.34621094 -5.1972168 8.34621094 -4.31445312 6.9140625 C-2.8872664 4.6022559 -1.44890177 2.29823615 0 0 Z " fill="#E45830" transform="translate(314,621)"/>
<path d="M0 0 C0.99 0.495 0.99 0.495 2 1 C1.01 1.495 1.01 1.495 0 2 C0 1.34 0 0.68 0 0 Z M0 2 C-2.63904371 3.41377341 -5.07120629 4.37240135 -8 5 C-8 5.66 -8 6.32 -8 7 C-9.609375 8.1484375 -9.609375 8.1484375 -11.75 9.375 C-14.94224039 11.28242023 -17.50964721 13.19835311 -20 16 C-20.66 15.67 -21.32 15.34 -22 15 C-8.82142857 1.29428571 -8.82142857 1.29428571 0 2 Z " fill="#E04E24" transform="translate(402,500)"/>
<path d="M0 0 C1.12894876 0.93274109 2.25300876 1.87140122 3.375 2.8125 C4.00148438 3.33457031 4.62796875 3.85664062 5.2734375 4.39453125 C7 6 7 6 9 9 C5.33333333 12.66666667 1.66666667 16.33333333 -2 20 C-1.40716379 16.60807637 -0.23256811 14.7892243 2.0625 12.25 C2.88427734 11.32960938 2.88427734 11.32960938 3.72265625 10.390625 C4.14417969 9.93171875 4.56570313 9.4728125 5 9 C3.94645929 6.77382267 3.12920379 5.12920379 1.375 3.375 C0.92125 2.92125 0.4675 2.4675 0 2 C0 1.34 0 0.68 0 0 Z " fill="#F6CBB8" transform="translate(618,690)"/>
<path d="M0 0 C0 4.44071752 -2.89285572 6.46249234 -5.8125 9.5 C-6.63331055 10.37205078 -6.63331055 10.37205078 -7.47070312 11.26171875 C-9.94266092 13.88049585 -12.44668183 16.46040172 -15 19 C-15.66 18.67 -16.32 18.34 -17 18 C-16.25556641 17.27296875 -16.25556641 17.27296875 -15.49609375 16.53125 C-11.2942587 12.38522681 -7.2856068 8.14738282 -3.4453125 3.6640625 C-2.34597202 2.39833536 -1.1854566 1.1854566 0 0 Z " fill="#E25825" transform="translate(606,721)"/>
<path d="M0 0 C0.81404297 0.36158203 0.81404297 0.36158203 1.64453125 0.73046875 C0.00484375 1.62765625 0.00484375 1.62765625 -1.66796875 2.54296875 C-4.29765114 4.03276866 -6.26806604 5.53320274 -8.35546875 7.73046875 C-9.01546875 7.73046875 -9.67546875 7.73046875 -10.35546875 7.73046875 C-10.68546875 8.72046875 -11.01546875 9.71046875 -11.35546875 10.73046875 C-12.34546875 11.06046875 -13.33546875 11.39046875 -14.35546875 11.73046875 C-14.05293928 8.61371165 -13.34500881 7.72083869 -10.9921875 5.5546875 C-10.01894531 4.84957031 -9.04570313 4.14445312 -8.04296875 3.41796875 C-6.59470703 2.34095703 -6.59470703 2.34095703 -5.1171875 1.2421875 C-2.35546875 -0.26953125 -2.35546875 -0.26953125 0 0 Z " fill="#E55D29" transform="translate(818.35546875,501.26953125)"/>
<path d="M0 0 C-0.33 0.66 -0.66 1.32 -1 2 C-3.3984375 2.6328125 -3.3984375 2.6328125 -6.375 3.125 C-7.84066406 3.37636719 -7.84066406 3.37636719 -9.3359375 3.6328125 C-13.72078784 4.23717604 -17.64480765 3.65738752 -22 3 C-22 2.67 -22 2.34 -22 2 C-19.45887768 1.66198848 -16.91723254 1.32946621 -14.375 1 C-13.66214844 0.90460937 -12.94929687 0.80921875 -12.21484375 0.7109375 C-8.11178391 0.18393899 -4.14754258 -0.10466984 0 0 Z " fill="#EC7C36" transform="translate(929,887)"/>
<path d="M0 0 C2.23052609 3.49918964 2.02283444 5.6261732 1.1875 9.625 C0.99542969 10.58664062 0.80335937 11.54828125 0.60546875 12.5390625 C0 15 0 15 -1 17 C-1.66 17 -2.32 17 -3 17 C-2.36934845 11.2190275 -1.34844868 5.6556294 0 0 Z " fill="#EF8440" transform="translate(1083,729)"/>
<path d="M0 0 C4.13621084 3.3810038 7.81316569 6.66590534 11 11 C7.05860922 9.33248852 4.2107188 6.77289351 1 4 C-0.65 5.32 -2.3 6.64 -4 8 C-2.25 2.25 -2.25 2.25 0 0 Z " fill="#E45B26" transform="translate(626,699)"/>
<path d="M0 0 C0.66 0.66 1.32 1.32 2 2 C-1.63 5.63 -5.26 9.26 -9 13 C-9.66 12.34 -10.32 11.68 -11 11 C-7.37 7.37 -3.74 3.74 0 0 Z " fill="#FAE6DC" transform="translate(647,508)"/>
<path d="M0 0 C-1.53643852 3.68069887 -3.78150945 5.98775204 -6.625 8.75 C-7.85089844 9.94882812 -7.85089844 9.94882812 -9.1015625 11.171875 C-9.72804688 11.77515625 -10.35453125 12.3784375 -11 13 C-11.66 12.34 -12.32 11.68 -13 11 C-11.21427748 9.16052663 -9.42197551 7.32842259 -7.625 5.5 C-7.11710937 4.97535156 -6.60921875 4.45070313 -6.0859375 3.91015625 C-2.2265625 0 -2.2265625 0 0 0 Z " fill="#FAE5D9" transform="translate(519,644)"/>
<path d="M0 0 C1.439735 0.14033578 2.88337149 0.24416857 4.328125 0.31640625 C5.52695312 0.37924805 5.52695312 0.37924805 6.75 0.44335938 C7.9875 0.50233398 7.9875 0.50233398 9.25 0.5625 C10.09046875 0.60568359 10.9309375 0.64886719 11.796875 0.69335938 C13.86440671 0.79908543 15.93218281 0.90001295 18 1 C18 1.33 18 1.66 18 2 C14.27084983 2.02912348 10.5417291 2.04684037 6.8125 2.0625 C5.22985352 2.07506836 5.22985352 2.07506836 3.61523438 2.08789062 C2.08286133 2.09272461 2.08286133 2.09272461 0.51953125 2.09765625 C-0.41785889 2.10289307 -1.35524902 2.10812988 -2.32104492 2.11352539 C-4.98049477 2.00082657 -7.40920573 1.59376649 -10 1 C-10 0.67 -10 0.34 -10 0 C-6.21323884 -0.77456478 -3.69334265 -0.97741862 0 0 Z " fill="#F58E50" transform="translate(882,768)"/>
<path d="M0 0 C2.49310643 3.73965964 2.0603261 5.29070641 1.625 9.6875 C1.51414062 10.86699219 1.40328125 12.04648437 1.2890625 13.26171875 C1.19367188 14.16535156 1.09828125 15.06898438 1 16 C0.01 16 -0.98 16 -2 16 C-1.34 10.72 -0.68 5.44 0 0 Z " fill="#EF843E" transform="translate(1086,709)"/>
<path d="M0 0 C0 3.67871799 -0.75309702 4.18085328 -3.1875 6.8125 C-4.13882813 7.85857422 -4.13882813 7.85857422 -5.109375 8.92578125 C-5.73328125 9.61027344 -6.3571875 10.29476562 -7 11 C-8.68728801 12.98381634 -10.34260309 14.99103405 -12 17 C-12 11.15286854 -6.59247441 6.47692078 -2.625 2.5 C-1.75875 1.675 -0.8925 0.85 0 0 Z " fill="#E45722" transform="translate(802,513)"/>
<path d="M0 0 C4.62 0 9.24 0 14 0 C14 0.33 14 0.66 14 1 C13.25234375 1.13277344 12.5046875 1.26554687 11.734375 1.40234375 C10.25710938 1.66724609 10.25710938 1.66724609 8.75 1.9375 C7.77546875 2.11152344 6.8009375 2.28554688 5.796875 2.46484375 C3.07051977 2.93296126 3.07051977 2.93296126 0.765625 3.69140625 C0.18296875 3.79324219 -0.3996875 3.89507812 -1 4 C-1.66 3.34 -2.32 2.68 -3 2 C-2.01 2 -1.02 2 0 2 C0 1.34 0 0.68 0 0 Z " fill="#DE4A1F" transform="translate(408,497)"/>
<path d="M0 0 C1.47066513 2.33921011 2.08971187 3.48236249 1.609375 6.25390625 C1.32578125 7.01574219 1.0421875 7.77757812 0.75 8.5625 C0.47671875 9.32691406 0.2034375 10.09132813 -0.078125 10.87890625 C-1 13 -1 13 -3 16 C-4.31225809 12.06322574 -3.3393954 10.2205738 -2.0625 6.3125 C-1.68222656 5.13300781 -1.30195312 3.95351563 -0.91015625 2.73828125 C-0.60980469 1.83464844 -0.30945312 0.93101562 0 0 Z " fill="#ED8440" transform="translate(1079,746)"/>
<path d="M0 0 C0.66 0.66 1.32 1.32 2 2 C-1.33333333 5.33333333 -4.66666667 8.66666667 -8 12 C-8.66 11.67 -9.32 11.34 -10 11 C-6.7 7.37 -3.4 3.74 0 0 Z " fill="#ED792F" transform="translate(1044,816)"/>
<path d="M0 0 C3.45201639 1.47721422 5.64961936 3.43794001 8.25 6.125 C8.95640625 6.84945312 9.6628125 7.57390625 10.390625 8.3203125 C11.18726563 9.15175781 11.18726563 9.15175781 12 10 C11.01 10.66 10.02 11.32 9 12 C8.443125 11.13375 7.88625 10.2675 7.3125 9.375 C5.09747202 6.04054927 2.60395067 3.03794244 0 0 Z " fill="#E96933" transform="translate(675,753)"/>
<path d="M0 0 C0 3 0 3 -1.4609375 4.71875 C-2.09257813 5.3065625 -2.72421875 5.894375 -3.375 6.5 C-5.65041801 8.63496011 -7.24747563 10.37121344 -9 13 C-9.66 13 -10.32 13 -11 13 C-9.46356148 9.31930113 -7.21849055 7.01224796 -4.375 4.25 C-3.55773437 3.45078125 -2.74046875 2.6515625 -1.8984375 1.828125 C-0.95871094 0.92320312 -0.95871094 0.92320312 0 0 Z " fill="#E55B26" transform="translate(585,744)"/>
<path d="M0 0 C0.75 1.6875 0.75 1.6875 1 4 C-0.9375 6.75 -0.9375 6.75 -3 9 C-2.67 9.66 -2.34 10.32 -2 11 C-2.99 10.67 -3.98 10.34 -5 10 C-5 9.34 -5 8.68 -5 8 C-5.66 7.67 -6.32 7.34 -7 7 C-6.21625 6.401875 -5.4325 5.80375 -4.625 5.1875 C-1.85425677 3.08914751 -1.85425677 3.08914751 0 0 Z " fill="#F9D8C9" transform="translate(635,520)"/>
<path d="M0 0 C2.51239382 3.76859072 3.12663199 6.26239249 3.0625 10.6875 C3.05347656 11.49574219 3.04445313 12.30398438 3.03515625 13.13671875 C3.02355469 13.75160156 3.01195312 14.36648438 3 15 C-0.25195722 10.12206417 -0.11325659 5.77608621 0 0 Z " fill="#ED7C40" transform="translate(963,663)"/>
<path d="M0 0 C0.33 0 0.66 0 1 0 C0.40546697 9.59453303 0.40546697 9.59453303 -3 13 C-4.23593891 9.29218328 -3.5678132 8.32489747 -2.0625 4.8125 C-1.68222656 3.91144531 -1.30195312 3.01039063 -0.91015625 2.08203125 C-0.60980469 1.39496094 -0.30945312 0.70789063 0 0 Z " fill="#EC813D" transform="translate(1073,764)"/>
<path d="M0 0 C0.66 0 1.32 0 2 0 C0.84414715 3.91211733 -0.35534962 6.8745041 -3 10 C-4 7 -4 7 -3.22265625 5.17578125 C-2.1484375 3.45052083 -1.07421875 1.72526042 0 0 Z " fill="#F17A31" transform="translate(960,720)"/>
<path d="M0 0 C1.32 1.65 2.64 3.3 4 5 C3.401875 5.103125 2.80375 5.20625 2.1875 5.3125 C-0.28243264 6.08876455 -1.32251235 7.07088921 -3 9 C-3.66 8.67 -4.32 8.34 -5 8 C-4.54625 7.4225 -4.0925 6.845 -3.625 6.25 C-2.15886484 4.2199667 -1.05142216 2.26460157 0 0 Z " fill="#F6BBA2" transform="translate(546,612)"/>
<path d="M0 0 C3.7952131 1.49097658 5.61042731 3.75700849 8 7 C5 7 5 7 2.3125 4.625 C0 2 0 2 0 0 Z " fill="#FAE4DA" transform="translate(560,456)"/>
<path d="M0 0 C-2.61973266 2.61973266 -4.35166422 2.70813314 -8 3 C-10.375 2.0625 -10.375 2.0625 -12 1 C-3.96428571 -1.27678571 -3.96428571 -1.27678571 0 0 Z " fill="#EE833D" transform="translate(941,885)"/>
<path d="M0 0 C-1.66751148 3.94139078 -4.22710649 6.7892812 -7 10 C-7.33 9.01 -7.66 8.02 -8 7 C-6.85546875 5.17578125 -6.85546875 5.17578125 -5.1875 3.3125 C-4.37345703 2.37857422 -4.37345703 2.37857422 -3.54296875 1.42578125 C-2 0 -2 0 0 0 Z " fill="#F9D7C0" transform="translate(624,700)"/>
<path d="M0 0 C0.66 0.66 1.32 1.32 2 2 C1.0479279 3.00596297 0.08812654 4.00461563 -0.875 5 C-1.40867187 5.556875 -1.94234375 6.11375 -2.4921875 6.6875 C-4 8 -4 8 -6 8 C-5.34 6.68 -4.68 5.36 -4 4 C-3.34 4 -2.68 4 -2 4 C-1.34 2.68 -0.68 1.36 0 0 Z " fill="#F8E3D3" transform="translate(717,600)"/>
<path d="M0 0 C0.33 0.66 0.66 1.32 1 2 C0.00390625 3.9453125 0.00390625 3.9453125 -1.4375 6.125 C-1.91058594 6.84945313 -2.38367188 7.57390625 -2.87109375 8.3203125 C-3.24363281 8.87460937 -3.61617188 9.42890625 -4 10 C-4.33 9.34 -4.66 8.68 -5 8 C-4.0625 5.375 -4.0625 5.375 -3 3 C-2.34 3 -1.68 3 -1 3 C-0.67 2.01 -0.34 1.02 0 0 Z " fill="#E85429" transform="translate(279,454)"/>
<path d="M0 0 C4.33168317 -0.26252625 7.8803623 0.70756464 12 2 C12 2.33 12 2.66 12 3 C3.42857143 3.14285714 3.42857143 3.14285714 0 2 C0 1.34 0 0.68 0 0 Z " fill="#F17240" transform="translate(349,767)"/>
<path d="M0 0 C2.5654594 2.5654594 2.54046087 4.47686668 3 8 C2.34 8 1.68 8 1 8 C0.67 8.99 0.34 9.98 0 11 C-0.19406478 9.35492782 -0.38007935 7.70890406 -0.5625 6.0625 C-0.66691406 5.14597656 -0.77132813 4.22945312 -0.87890625 3.28515625 C-0.91886719 2.53105469 -0.95882813 1.77695312 -1 1 C-0.67 0.67 -0.34 0.34 0 0 Z " fill="#F17F39" transform="translate(1084,656)"/>
<path d="M0 0 C0.33 0.99 0.66 1.98 1 3 C-1.64 4.98 -4.28 6.96 -7 9 C-5.04783565 5.09567131 -3.12613393 2.96160056 0 0 Z " fill="#FBDDCB" transform="translate(530,630)"/>
<path d="M0 0 C1 3 1 3 -0.25 5.625 C-2 8 -2 8 -5 9 C-3.7508258 5.54074837 -2.32472205 2.85306797 0 0 Z " fill="#FBE5DE" transform="translate(284,449)"/>
<path d="M0 0 C0.99 0 1.98 0 3 0 C2.34 1.32 1.68 2.64 1 4 C-0.32 4 -1.64 4 -3 4 C-1.6875 2 -1.6875 2 0 0 Z " fill="#E76833" transform="translate(773,543)"/>
<path d="M0 0 C1.98 1.65 3.96 3.3 6 5 C5.67 5.99 5.34 6.98 5 8 C0 2.25 0 2.25 0 0 Z " fill="#FBE6DC" transform="translate(476,535)"/>
<path d="M0 0 C0 3.99904969 -1.72586967 5.80200422 -4 9 C-4.66 8.01 -5.32 7.02 -6 6 C-4.02 4.02 -2.04 2.04 0 0 Z " fill="#E36737" transform="translate(792,523)"/>
</svg>
